v 1 0 0.25
v 1 0 -0.25
v 0.9921147013144779 0.12533323356430426 0.25
v 0.9921147013144779 0.12533323356430426 -0.25
v 0.9685831611286311 0.2486898871648548 0.25
v 0.9685831611286311 0.2486898871648548 -0.25
v 0.9297764858882515 0.3681245526846779 0.25
v 0.9297764858882515 0.3681245526846779 -0.25
v 0.8763066800438636 0.4817536741017153 0.25
v 0.8763066800438636 0.4817536741017153 -0.25
v 0.8090169943749475 0.5877852522924731 0.25
v 0.8090169943749475 0.5877852522924731 -0.25
v 0.7289686274214116 0.6845471059286886 0.25
v 0.7289686274214116 0.6845471059286886 -0.25
v 0.6374239897486897 0.7705132427757893 0.25
v 0.6374239897486897 0.7705132427757893 -0.25
v 0.5358267949789965 0.8443279255020151 0.25
v 0.5358267949789965 0.8443279255020151 -0.25
v 0.42577929156507266 0.9048270524660196 0.25
v 0.42577929156507266 0.9048270524660196 -0.25
v 0.30901699437494745 0.9510565162951535 0.25
v 0.30901699437494745 0.9510565162951535 -0.25
v 0.18738131458572474 0.9822872507286886 0.25
v 0.18738131458572474 0.9822872507286886 -0.25
v 0.06279051952931353 0.9980267284282716 0.25
v 0.06279051952931353 0.9980267284282716 -0.25
v -0.0627905195293134 0.9980267284282716 0.25
v -0.0627905195293134 0.9980267284282716 -0.25
v -0.1873813145857246 0.9822872507286887 0.25
v -0.1873813145857246 0.9822872507286887 -0.25
v -0.3090169943749471 0.9510565162951536 0.25
v -0.3090169943749471 0.9510565162951536 -0.25
v -0.4257792915650727 0.9048270524660195 0.25
v -0.4257792915650727 0.9048270524660195 -0.25
v -0.5358267949789969 0.844327925502015 0.25
v -0.5358267949789969 0.844327925502015 -0.25
v -0.6374239897486897 0.7705132427757893 0.25
v -0.6374239897486897 0.7705132427757893 -0.25
v -0.7289686274214113 0.6845471059286888 0.25
v -0.7289686274214113 0.6845471059286888 -0.25
v -0.8090169943749473 0.5877852522924732 0.25
v -0.8090169943749473 0.5877852522924732 -0.25
v -0.8763066800438636 0.4817536741017152 0.25
v -0.8763066800438636 0.4817536741017152 -0.25
v -0.9297764858882513 0.36812455268467814 0.25
v -0.9297764858882513 0.36812455268467814 -0.25
v -0.968583161128631 0.24868988716485524 0.25
v -0.968583161128631 0.24868988716485524 -0.25
v -0.9921147013144778 0.12533323356430454 0.25
v -0.9921147013144778 0.12533323356430454 -0.25
v -1 1.2246467991473532e-16 0.25
v -1 1.2246467991473532e-16 -0.25
v -0.9921147013144779 -0.12533323356430429 0.25
v -0.9921147013144779 -0.12533323356430429 -0.25
v -0.9685831611286312 -0.24868988716485457 0.25
v -0.9685831611286312 -0.24868988716485457 -0.25
v -0.9297764858882515 -0.3681245526846779 0.25
v -0.9297764858882515 -0.3681245526846779 -0.25
v -0.8763066800438636 -0.4817536741017154 0.25
v -0.8763066800438636 -0.4817536741017154 -0.25
v -0.8090169943749478 -0.5877852522924727 0.25
v -0.8090169943749478 -0.5877852522924727 -0.25
v -0.7289686274214118 -0.6845471059286884 0.25
v -0.7289686274214118 -0.6845471059286884 -0.25
v -0.6374239897486895 -0.7705132427757894 0.25
v -0.6374239897486895 -0.7705132427757894 -0.25
v -0.5358267949789963 -0.8443279255020153 0.25
v -0.5358267949789963 -0.8443279255020153 -0.25
v -0.42577929156507216 -0.9048270524660198 0.25
v -0.42577929156507216 -0.9048270524660198 -0.25
v -0.30901699437494756 -0.9510565162951535 0.25
v -0.30901699437494756 -0.9510565162951535 -0.25
v -0.18738131458572463 -0.9822872507286887 0.25
v -0.18738131458572463 -0.9822872507286887 -0.25
v -0.06279051952931321 -0.9980267284282716 0.25
v -0.06279051952931321 -0.9980267284282716 -0.25
v 0.06279051952931283 -0.9980267284282716 0.25
v 0.06279051952931283 -0.9980267284282716 -0.25
v 0.18738131458572427 -0.9822872507286887 0.25
v 0.18738131458572427 -0.9822872507286887 -0.25
v 0.30901699437494723 -0.9510565162951536 0.25
v 0.30901699437494723 -0.9510565162951536 -0.25
v 0.4257792915650718 -0.9048270524660199 0.25
v 0.4257792915650718 -0.9048270524660199 -0.25
v 0.5358267949789968 -0.844327925502015 0.25
v 0.5358267949789968 -0.844327925502015 -0.25
v 0.6374239897486893 -0.7705132427757896 0.25
v 0.6374239897486893 -0.7705132427757896 -0.25
v 0.7289686274214112 -0.684547105928689 0.25
v 0.7289686274214112 -0.684547105928689 -0.25
v 0.8090169943749473 -0.5877852522924734 0.25
v 0.8090169943749473 -0.5877852522924734 -0.25
v 0.8763066800438631 -0.4817536741017161 0.25
v 0.8763066800438631 -0.4817536741017161 -0.25
v 0.9297764858882515 -0.36812455268467786 0.25
v 0.9297764858882515 -0.36812455268467786 -0.25
v 0.968583161128631 -0.24868988716485535 0.25
v 0.968583161128631 -0.24868988716485535 -0.25
v 0.9921147013144778 -0.12533323356430465 0.25
v 0.9921147013144778 -0.12533323356430465 -0.25
v 0 0 0.25
v 0 0 -0.25
vn 0.9980267284282714 0.06279051952931301 0
vn 0.9980267284282714 0.06279051952931301 0
vn 0.9822872507286885 0.1873813145857253 0
vn 0.9822872507286885 0.1873813145857253 0
vn 0.9510565162951539 0.30901699437494684 0
vn 0.9510565162951539 0.30901699437494684 0
vn 0.9048270524660195 0.42577929156507277 0
vn 0.9048270524660195 0.42577929156507277 0
vn 0.8443279255020152 0.5358267949789967 0
vn 0.8443279255020152 0.5358267949789967 0
vn 0.770513242775789 0.63742398974869 0
vn 0.770513242775789 0.63742398974869 0
vn 0.6845471059286891 0.7289686274214112 0
vn 0.6845471059286891 0.7289686274214112 0
vn 0.5877852522924726 0.8090169943749478 0
vn 0.5877852522924726 0.8090169943749478 0
vn 0.48175367410171593 0.8763066800438634 0
vn 0.48175367410171593 0.8763066800438634 0
vn 0.3681245526846774 0.9297764858882517 0
vn 0.3681245526846774 0.9297764858882517 0
vn 0.2486898871648547 0.9685831611286312 0
vn 0.2486898871648547 0.9685831611286312 0
vn 0.1253332335643048 0.9921147013144778 0
vn 0.1253332335643048 0.9921147013144778 0
vn 0 1 0
vn 0 1 0
vn -0.12533323356430395 0.9921147013144779 0
vn -0.12533323356430395 0.9921147013144779 0
vn -0.2486898871648551 0.9685831611286311 0
vn -0.2486898871648551 0.9685831611286311 0
vn -0.36812455268467786 0.9297764858882516 0
vn -0.36812455268467786 0.9297764858882516 0
vn -0.481753674101715 0.8763066800438638 0
vn -0.481753674101715 0.8763066800438638 0
vn -0.5877852522924732 0.8090169943749472 0
vn -0.5877852522924732 0.8090169943749472 0
vn -0.684547105928689 0.7289686274214112 0
vn -0.684547105928689 0.7289686274214112 0
vn -0.7705132427757889 0.6374239897486901 0
vn -0.7705132427757889 0.6374239897486901 0
vn -0.8443279255020153 0.5358267949789964 0
vn -0.8443279255020153 0.5358267949789964 0
vn -0.9048270524660195 0.4257792915650731 0
vn -0.9048270524660195 0.4257792915650731 0
vn -0.9510565162951535 0.30901699437494734 0
vn -0.9510565162951535 0.30901699437494734 0
vn -0.9822872507286885 0.18738131458572505 0
vn -0.9822872507286885 0.18738131458572505 0
vn -0.9980267284282714 0.0627905195293138 0
vn -0.9980267284282714 0.0627905195293138 0
vn -0.9980267284282714 -0.06279051952931294 0
vn -0.9980267284282714 -0.06279051952931294 0
vn -0.9822872507286886 -0.18738131458572482 0
vn -0.9822872507286886 -0.18738131458572482 0
vn -0.9510565162951538 -0.3090169943749471 0
vn -0.9510565162951538 -0.3090169943749471 0
vn -0.9048270524660195 -0.42577929156507255 0
vn -0.9048270524660195 -0.42577929156507255 0
vn -0.8443279255020151 -0.5358267949789964 0
vn -0.8443279255020151 -0.5358267949789964 0
vn -0.7705132427757893 -0.6374239897486896 0
vn -0.7705132427757893 -0.6374239897486896 0
vn -0.6845471059286886 -0.7289686274214114 0
vn -0.6845471059286886 -0.7289686274214114 0
vn -0.5877852522924731 -0.8090169943749475 0
vn -0.5877852522924731 -0.8090169943749475 0
vn -0.481753674101715 -0.8763066800438638 0
vn -0.481753674101715 -0.8763066800438638 0
vn -0.36812455268467753 -0.9297764858882516 0
vn -0.36812455268467753 -0.9297764858882516 0
vn -0.2486898871648551 -0.968583161128631 0
vn -0.2486898871648551 -0.968583161128631 0
vn -0.12533323356430373 -0.9921147013144779 0
vn -0.12533323356430373 -0.9921147013144779 0
vn 0 -1 0
vn 0 -1 0
vn 0.1253332335643037 -0.9921147013144778 0
vn 0.1253332335643037 -0.9921147013144778 0
vn 0.24868988716485424 -0.9685831611286312 0
vn 0.24868988716485424 -0.9685831611286312 0
vn 0.36812455268467753 -0.9297764858882516 0
vn 0.36812455268467753 -0.9297764858882516 0
vn 0.481753674101715 -0.8763066800438636 0
vn 0.481753674101715 -0.8763066800438636 0
vn 0.5877852522924728 -0.8090169943749477 0
vn 0.5877852522924728 -0.8090169943749477 0
vn 0.6845471059286886 -0.7289686274214116 0
vn 0.6845471059286886 -0.7289686274214116 0
vn 0.7705132427757886 -0.6374239897486906 0
vn 0.7705132427757886 -0.6374239897486906 0
vn 0.8443279255020151 -0.5358267949789967 0
vn 0.8443279255020151 -0.5358267949789967 0
vn 0.9048270524660192 -0.4257792915650731 0
vn 0.9048270524660192 -0.4257792915650731 0
vn 0.9510565162951536 -0.30901699437494745 0
vn 0.9510565162951536 -0.30901699437494745 0
vn 0.9822872507286885 -0.18738131458572505 0
vn 0.9822872507286885 -0.18738131458572505 0
vn 0.9980267284282714 -0.0627905195293137 0
vn 0.9980267284282714 -0.0627905195293137 0
vn 0 0 1
vn 0 0 1
vn 0 0 1
vn 0 0 1
vn 0 0 1
vn 0 0 1
vn 0 0 1
vn 0 0 1
vn 0 0 1
vn 0 0 1
vn 0 0 1
vn 0 0 1
vn 0 0 1
vn 0 0 1
vn 0 0 1
vn 0 0 1
vn 0 0 1
vn 0 0 1
vn 0 0 1
vn 0 0 1
vn 0 0 1
vn 0 0 1
vn 0 0 1
vn 0 0 1
vn 0 0 1
vn 0 0 1
vn 0 0 1
vn 0 0 1
vn 0 0 1
vn 0 0 1
vn 0 0 1
vn 0 0 1
vn 0 0 1
vn 0 0 1
vn 0 0 1
vn 0 0 1
vn 0 0 1
vn 0 0 1
vn 0 0 1
vn 0 0 1
vn 0 0 1
vn 0 0 1
vn 0 0 1
vn 0 0 1
vn 0 0 1
vn 0 0 1
vn 0 0 1
vn 0 0 1
vn 0 0 1
vn 0 0 1
vn 0 0 -1
vn 0 0 -1
vn 0 0 -1
vn 0 0 -1
vn 0 0 -1
vn 0 0 -1
vn 0 0 -1
vn 0 0 -1
vn 0 0 -1
vn 0 0 -1
vn 0 0 -1
vn 0 0 -1
vn 0 0 -1
vn 0 0 -1
vn 0 0 -1
vn 0 0 -1
vn 0 0 -1
vn 0 0 -1
vn 0 0 -1
vn 0 0 -1
vn 0 0 -1
vn 0 0 -1
vn 0 0 -1
vn 0 0 -1
vn 0 0 -1
vn 0 0 -1
vn 0 0 -1
vn 0 0 -1
vn 0 0 -1
vn 0 0 -1
vn 0 0 -1
vn 0 0 -1
vn 0 0 -1
vn 0 0 -1
vn 0 0 -1
vn 0 0 -1
vn 0 0 -1
vn 0 0 -1
vn 0 0 -1
vn 0 0 -1
vn 0 0 -1
vn 0 0 -1
vn 0 0 -1
vn 0 0 -1
vn 0 0 -1
vn 0 0 -1
vn 0 0 -1
vn 0 0 -1
vn 0 0 -1
vn 0 0 -1
f 1//1 2//1 3//1
f 3//2 2//2 4//2
f 3//3 4//3 5//3
f 5//4 4//4 6//4
f 5//5 6//5 7//5
f 7//6 6//6 8//6
f 7//7 8//7 9//7
f 9//8 8//8 10//8
f 9//9 10//9 11//9
f 11//10 10//10 12//10
f 11//11 12//11 13//11
f 13//12 12//12 14//12
f 13//13 14//13 15//13
f 15//14 14//14 16//14
f 15//15 16//15 17//15
f 17//16 16//16 18//16
f 17//17 18//17 19//17
f 19//18 18//18 20//18
f 19//19 20//19 21//19
f 21//20 20//20 22//20
f 21//21 22//21 23//21
f 23//22 22//22 24//22
f 23//23 24//23 25//23
f 25//24 24//24 26//24
f 25//25 26//25 27//25
f 27//26 26//26 28//26
f 27//27 28//27 29//27
f 29//28 28//28 30//28
f 29//29 30//29 31//29
f 31//30 30//30 32//30
f 31//31 32//31 33//31
f 33//32 32//32 34//32
f 33//33 34//33 35//33
f 35//34 34//34 36//34
f 35//35 36//35 37//35
f 37//36 36//36 38//36
f 37//37 38//37 39//37
f 39//38 38//38 40//38
f 39//39 40//39 41//39
f 41//40 40//40 42//40
f 41//41 42//41 43//41
f 43//42 42//42 44//42
f 43//43 44//43 45//43
f 45//44 44//44 46//44
f 45//45 46//45 47//45
f 47//46 46//46 48//46
f 47//47 48//47 49//47
f 49//48 48//48 50//48
f 49//49 50//49 51//49
f 51//50 50//50 52//50
f 51//51 52//51 53//51
f 53//52 52//52 54//52
f 53//53 54//53 55//53
f 55//54 54//54 56//54
f 55//55 56//55 57//55
f 57//56 56//56 58//56
f 57//57 58//57 59//57
f 59//58 58//58 60//58
f 59//59 60//59 61//59
f 61//60 60//60 62//60
f 61//61 62//61 63//61
f 63//62 62//62 64//62
f 63//63 64//63 65//63
f 65//64 64//64 66//64
f 65//65 66//65 67//65
f 67//66 66//66 68//66
f 67//67 68//67 69//67
f 69//68 68//68 70//68
f 69//69 70//69 71//69
f 71//70 70//70 72//70
f 71//71 72//71 73//71
f 73//72 72//72 74//72
f 73//73 74//73 75//73
f 75//74 74//74 76//74
f 75//75 76//75 77//75
f 77//76 76//76 78//76
f 77//77 78//77 79//77
f 79//78 78//78 80//78
f 79//79 80//79 81//79
f 81//80 80//80 82//80
f 81//81 82//81 83//81
f 83//82 82//82 84//82
f 83//83 84//83 85//83
f 85//84 84//84 86//84
f 85//85 86//85 87//85
f 87//86 86//86 88//86
f 87//87 88//87 89//87
f 89//88 88//88 90//88
f 89//89 90//89 91//89
f 91//90 90//90 92//90
f 91//91 92//91 93//91
f 93//92 92//92 94//92
f 93//93 94//93 95//93
f 95//94 94//94 96//94
f 95//95 96//95 97//95
f 97//96 96//96 98//96
f 97//97 98//97 99//97
f 99//98 98//98 100//98
f 99//99 100//99 1//99
f 1//100 100//100 2//100
f 101//101 1//101 3//101
f 101//102 3//102 5//102
f 101//103 5//103 7//103
f 101//104 7//104 9//104
f 101//105 9//105 11//105
f 101//106 11//106 13//106
f 101//107 13//107 15//107
f 101//108 15//108 17//108
f 101//109 17//109 19//109
f 101//110 19//110 21//110
f 101//111 21//111 23//111
f 101//112 23//112 25//112
f 101//113 25//113 27//113
f 101//114 27//114 29//114
f 101//115 29//115 31//115
f 101//116 31//116 33//116
f 101//117 33//117 35//117
f 101//118 35//118 37//118
f 101//119 37//119 39//119
f 101//120 39//120 41//120
f 101//121 41//121 43//121
f 101//122 43//122 45//122
f 101//123 45//123 47//123
f 101//124 47//124 49//124
f 101//125 49//125 51//125
f 101//126 51//126 53//126
f 101//127 53//127 55//127
f 101//128 55//128 57//128
f 101//129 57//129 59//129
f 101//130 59//130 61//130
f 101//131 61//131 63//131
f 101//132 63//132 65//132
f 101//133 65//133 67//133
f 101//134 67//134 69//134
f 101//135 69//135 71//135
f 101//136 71//136 73//136
f 101//137 73//137 75//137
f 101//138 75//138 77//138
f 101//139 77//139 79//139
f 101//140 79//140 81//140
f 101//141 81//141 83//141
f 101//142 83//142 85//142
f 101//143 85//143 87//143
f 101//144 87//144 89//144
f 101//145 89//145 91//145
f 101//146 91//146 93//146
f 101//147 93//147 95//147
f 101//148 95//148 97//148
f 101//149 97//149 99//149
f 101//150 99//150 1//150
f 102//151 4//151 2//151
f 102//152 6//152 4//152
f 102//153 8//153 6//153
f 102//154 10//154 8//154
f 102//155 12//155 10//155
f 102//156 14//156 12//156
f 102//157 16//157 14//157
f 102//158 18//158 16//158
f 102//159 20//159 18//159
f 102//160 22//160 20//160
f 102//161 24//161 22//161
f 102//162 26//162 24//162
f 102//163 28//163 26//163
f 102//164 30//164 28//164
f 102//165 32//165 30//165
f 102//166 34//166 32//166
f 102//167 36//167 34//167
f 102//168 38//168 36//168
f 102//169 40//169 38//169
f 102//170 42//170 40//170
f 102//171 44//171 42//171
f 102//172 46//172 44//172
f 102//173 48//173 46//173
f 102//174 50//174 48//174
f 102//175 52//175 50//175
f 102//176 54//176 52//176
f 102//177 56//177 54//177
f 102//178 58//178 56//178
f 102//179 60//179 58//179
f 102//180 62//180 60//180
f 102//181 64//181 62//181
f 102//182 66//182 64//182
f 102//183 68//183 66//183
f 102//184 70//184 68//184
f 102//185 72//185 70//185
f 102//186 74//186 72//186
f 102//187 76//187 74//187
f 102//188 78//188 76//188
f 102//189 80//189 78//189
f 102//190 82//190 80//190
f 102//191 84//191 82//191
f 102//192 86//192 84//192
f 102//193 88//193 86//193
f 102//194 90//194 88//194
f 102//195 92//195 90//195
f 102//196 94//196 92//196
f 102//197 96//197 94//197
f 102//198 98//198 96//198
f 102//199 100//199 98//199
f 102//200 2//200 100//200
