# Blender 4.0.1
# www.blender.org
mtllib road.mtl
o Cube
v 4.019100 0.104416 -3.709162
v 4.019100 -0.104416 -3.709162
v 4.019100 0.104416 3.709162
v 4.019100 -0.104416 3.709162
v -4.019100 0.104416 -3.709162
v -4.019100 -0.104416 -3.709162
v -4.019100 0.104416 3.709162
v -4.019100 -0.104416 3.709162
v -3.082534 0.090263 0.345390
v -3.082534 0.262408 0.345390
v -3.082534 0.090263 -0.345390
v -3.082534 0.262408 -0.345390
v 2.725535 0.090263 0.345390
v 2.725535 0.262408 0.345390
v 2.725535 0.090263 -0.345390
v 2.725535 0.262408 -0.345390
v -3.082534 0.186828 0.345390
v -3.082534 0.358973 0.345390
v -3.082534 0.186828 -0.345390
v -3.082534 0.358973 -0.345390
v 2.725535 0.186828 0.345390
v 2.725535 0.358973 0.345390
v 2.725535 0.186828 -0.345390
v 2.725535 0.358973 -0.345390
vn -0.0000 1.0000 -0.0000
vn -0.0000 -0.0000 1.0000
vn -1.0000 -0.0000 -0.0000
vn -0.0000 -1.0000 -0.0000
vn 1.0000 -0.0000 -0.0000
vn -0.0000 -0.0000 -1.0000
vt 0.625000 0.500000
vt 0.875000 0.500000
vt 0.875000 0.750000
vt 0.625000 0.750000
vt 0.375000 0.750000
vt 0.625000 1.000000
vt 0.375000 1.000000
vt 0.375000 0.000000
vt 0.625000 0.000000
vt 0.625000 0.250000
vt 0.375000 0.250000
vt 0.125000 0.500000
vt 0.375000 0.500000
vt 0.125000 0.750000
s 0
usemtl Material
f 1/1/1 5/2/1 7/3/1 3/4/1
f 4/5/2 3/4/2 7/6/2 8/7/2
f 8/8/3 7/9/3 5/10/3 6/11/3
f 6/12/4 2/13/4 4/5/4 8/14/4
f 2/13/5 1/1/5 3/4/5 4/5/5
f 6/11/6 5/10/6 1/1/6 2/13/6
f 9/8/5 11/11/5 12/10/5 10/9/5
f 11/11/2 15/13/2 16/1/2 12/10/2
f 15/13/3 13/5/3 14/4/3 16/1/3
f 13/5/6 9/7/6 10/6/6 14/4/6
f 11/12/1 9/14/1 13/5/1 15/13/1
f 16/1/4 14/4/4 10/3/4 12/2/4
f 17/8/3 18/9/3 20/10/3 19/11/3
f 19/11/6 20/10/6 24/1/6 23/13/6
f 23/13/5 24/1/5 22/4/5 21/5/5
f 21/5/2 22/4/2 18/6/2 17/7/2
f 19/12/4 23/13/4 21/5/4 17/14/4
f 24/1/1 20/2/1 18/3/1 22/4/1
